<svg width="170" height="90" viewBox="0 0 170 90" fill="none" xmlns="http://www.w3.org/2000/svg">
<rect x="0.5" y="0.5" width="169" height="89" rx="3.5" stroke="#AFB1B8"/>
<path d="M81.977 21.9345H82.1136C82.3666 21.9345 82.6398 21.9599 82.9105 21.9828C84.1031 22.067 85.2873 22.2455 86.4521 22.5168V19.6535C85.2528 19.3526 84.0297 19.1578 82.7966 19.0712C82.3286 19.0356 81.8303 19.0127 81.3193 19H80.8917C78.4168 19.0093 75.9526 19.3271 73.5555 19.946C70.8253 20.6269 68.2047 21.6928 65.7716 23.1119V51.5086C68.1143 50.2357 70.6071 49.2643 73.1913 48.6173C75.2316 48.0967 77.3175 47.7765 79.4194 47.6612H79.5029C79.8546 47.6434 80.2062 47.6332 80.5679 47.6306V44.7216C77.8367 44.7567 75.1193 45.1178 72.4728 45.7972C71.4938 46.0515 70.5477 46.3261 69.6598 46.6313L68.6479 46.9746V24.8334L69.0805 24.6249C72.3817 23.0595 75.9522 22.1486 79.5965 21.9421C79.6268 21.9399 79.6573 21.9399 79.6876 21.9421C80.0898 21.9218 80.4946 21.9116 80.8917 21.9116H81.3269H81.3471C81.5571 21.9167 81.767 21.9218 81.977 21.9345Z" fill="#AFB1B8"/>
<path d="M89.1108 24.9326C88.4455 24.9326 87.7878 24.9097 87.1528 24.8614C86.3939 24.8054 85.6147 24.7139 84.8761 24.5893C84.4258 24.513 83.9831 24.4215 83.553 24.3223V52.3935C85.3737 52.8443 87.2433 53.0647 89.1184 53.0496C91.5931 53.0395 94.0571 52.7227 96.4546 52.1061C99.1853 51.4243 101.807 50.3585 104.241 48.9402V21.0496C101.899 22.3218 99.4069 23.294 96.8239 23.9434C94.3032 24.5908 91.7125 24.9231 89.1108 24.9326ZM100.335 25.4183L101.347 25.0775V47.2263L100.915 47.4348C99.2552 48.2243 97.5224 48.8469 95.7412 49.2937C93.5782 49.8533 91.3545 50.1412 89.1209 50.1506C88.4531 50.1506 87.7903 50.1227 87.1477 50.0667L86.4546 50.0057V47.3178V27.2288L87.2616 27.2822C87.8485 27.3204 88.4556 27.3382 89.1159 27.3382C91.9514 27.3281 94.7749 26.966 97.5221 26.26C98.4657 26.0108 99.4043 25.7311 100.335 25.4183Z" fill="#AFB1B8"/>
<path d="M67.7372 61.2124C67.5917 61.0615 67.4163 60.943 67.2224 60.8646C67.0285 60.7862 66.8203 60.7496 66.6114 60.7572C66.3888 60.7542 66.1678 60.7957 65.9613 60.8793C65.7719 60.9547 65.5998 61.068 65.4554 61.2124C65.3125 61.3572 65.2013 61.5304 65.129 61.721C65.0497 61.9207 65.0102 62.1341 65.0127 62.3491V66.1431C65.0036 66.4104 65.0546 66.6764 65.1619 66.9212C65.2515 67.1156 65.3808 67.2889 65.5414 67.4298C65.693 67.5575 65.871 67.6495 66.0625 67.6994C66.247 67.7512 66.4376 67.7777 66.6291 67.7782C66.8404 67.7803 67.0496 67.7351 67.2413 67.646C67.431 67.563 67.6028 67.4438 67.7473 67.295C67.8882 67.1476 68.0005 66.9752 68.0787 66.7864C68.1598 66.5951 68.2011 66.3892 68.2001 66.1812V65.7566H67.2085V66.0948C67.2114 66.2103 67.1916 66.3252 67.1503 66.433C67.118 66.5137 67.0688 66.5866 67.0061 66.6466C66.9446 66.6962 66.8742 66.7334 66.7986 66.7559C66.7317 66.7782 66.6617 66.7902 66.5912 66.7915C66.5027 66.8018 66.413 66.7885 66.3313 66.7527C66.2495 66.717 66.1786 66.6602 66.1257 66.5881C66.0322 66.4356 65.9864 66.2585 65.9942 66.0795V62.5423C65.988 62.3462 66.0297 62.1515 66.1156 61.9753C66.1671 61.8952 66.2399 61.8313 66.3258 61.7908C66.4117 61.7503 66.5072 61.7349 66.6013 61.7464C66.6868 61.7434 66.7717 61.7612 66.8488 61.7984C66.9259 61.8356 66.9929 61.8911 67.044 61.96C67.155 62.1057 67.213 62.2852 67.2085 62.4686V62.7966H68.19V62.4101C68.192 62.1831 68.1508 61.9578 68.0686 61.7464C67.9953 61.5476 67.8825 61.3659 67.7372 61.2124Z" fill="#AFB1B8"/>
<path d="M73.6289 61.1691C73.3127 60.9021 72.9136 60.7546 72.5006 60.7521C72.2986 60.7529 72.0983 60.7891 71.9087 60.8589C71.7161 60.9279 71.5384 61.0332 71.385 61.1691C71.2207 61.3168 71.0896 61.498 71.0005 61.7006C70.9006 61.9323 70.8514 62.183 70.8563 62.4355V66.0744C70.8495 66.3304 70.8987 66.5847 71.0005 66.8195C71.0902 67.0151 71.2215 67.1887 71.385 67.328C71.5366 67.4688 71.7147 67.5777 71.9087 67.6485C72.0983 67.7183 72.2986 67.7544 72.5006 67.7553C72.7027 67.7549 72.903 67.7187 73.0926 67.6485C73.2899 67.5767 73.4719 67.468 73.6289 67.328C73.7871 67.1861 73.9145 67.013 74.0033 66.8195C74.1051 66.5847 74.1543 66.3304 74.1475 66.0744V62.4355C74.1524 62.183 74.1032 61.9323 74.0033 61.7006C73.915 61.5001 73.7877 61.3194 73.6289 61.1691ZM73.1659 66.0744C73.1743 66.1714 73.1609 66.269 73.1268 66.3601C73.0926 66.4512 73.0386 66.5334 72.9686 66.6008C72.8376 66.7106 72.6725 66.7708 72.5019 66.7708C72.3313 66.7708 72.1661 66.7106 72.0352 66.6008C71.9652 66.5334 71.9112 66.4512 71.877 66.3601C71.8429 66.269 71.8295 66.1714 71.8378 66.0744V62.4355C71.8295 62.3385 71.8429 62.2409 71.877 62.1498C71.9112 62.0587 71.9652 61.9764 72.0352 61.9091C72.1661 61.7993 72.3313 61.7391 72.5019 61.7391C72.6725 61.7391 72.8376 61.7993 72.9686 61.9091C73.0386 61.9764 73.0926 62.0587 73.1268 62.1498C73.1609 62.2409 73.1743 62.3385 73.1659 62.4355V66.0744Z" fill="#AFB1B8"/>
<path d="M81.3673 67.6994V60.8107H80.4136L79.1614 64.4572H79.1437L77.8814 60.8107H76.9378V67.6994H77.9218V63.5087H77.9395L78.9034 66.4712H79.3941L80.3656 63.5087H80.3833V67.6994H81.3673Z" fill="#AFB1B8"/>
<path d="M86.958 61.2937C86.8065 61.1237 86.6152 60.9943 86.4015 60.9173C86.1712 60.8424 85.9301 60.8063 85.6881 60.8105H84.2259V67.6993H85.2074V65.0089H85.7134C86.0196 65.0228 86.3243 64.958 86.5988 64.8207C86.8219 64.6968 87.008 64.515 87.1376 64.2943C87.2512 64.1111 87.3277 63.9071 87.3628 63.6942C87.4014 63.435 87.4192 63.173 87.4159 62.911C87.4254 62.5802 87.3931 62.2495 87.3197 61.9269C87.2543 61.6885 87.1298 61.4706 86.958 61.2937ZM86.452 63.3941C86.4478 63.5188 86.4167 63.6412 86.361 63.7527C86.3049 63.8586 86.2161 63.9434 86.108 63.9942C85.9626 64.0593 85.804 64.0889 85.6451 64.0807H85.1973V61.7387H85.7032C85.8556 61.7312 86.0075 61.7609 86.146 61.8251C86.2474 61.8834 86.328 61.9724 86.3762 62.0794C86.4298 62.2004 86.459 62.331 86.4622 62.4634C86.4622 62.6084 86.4622 62.7609 86.4622 62.9211C86.4622 63.0813 86.4723 63.2466 86.4622 63.3941H86.452Z" fill="#AFB1B8"/>
<path d="M91.6076 60.8107H90.8032L89.2853 67.6994H90.2669L90.5553 66.2194H91.8935L92.1819 67.6994H93.1634L91.6076 60.8107ZM90.702 65.2811L91.1852 62.784H91.2029L91.6835 65.2811H90.702Z" fill="#AFB1B8"/>
<path d="M97.9497 64.9607H97.932L96.4495 60.8107H95.506V67.6994H96.4875V63.557H96.5077L98.0078 67.6994H98.9312V60.8107H97.9497V64.9607Z" fill="#AFB1B8"/>
<path d="M103.948 60.8107L103.158 63.5494H103.138L102.349 60.8107H101.309L102.657 64.7878V67.6994H103.639V64.7878L104.987 60.8107H103.948Z" fill="#AFB1B8"/>
<path d="M65 69.6445H65.4731V70.9719H65.7943V69.6445H66.2649V69.3724H65V69.6445Z" fill="#AFB1B8"/>
<path d="M68.9767 69.3724L68.3569 70.9719H68.6984L68.83 70.6083H69.4675L69.6041 70.9719H69.9532L69.3182 69.3724H68.9767ZM68.9261 70.3387L69.1437 69.7462L69.3612 70.3387H68.9261Z" fill="#AFB1B8"/>
<path d="M72.9079 70.3821H73.2773V70.5881C73.1694 70.6746 73.0358 70.722 72.8978 70.7229C72.8333 70.7265 72.7689 70.7145 72.7099 70.688C72.6509 70.6614 72.5991 70.6211 72.5588 70.5703C72.474 70.4485 72.4322 70.3017 72.4399 70.1533C72.4399 69.7973 72.5942 69.6193 72.9003 69.6193C72.9809 69.6112 73.0617 69.6325 73.128 69.6791C73.1944 69.7257 73.2419 69.7947 73.2621 69.8735L73.5783 69.8125C73.51 69.4997 73.2849 69.3421 72.9003 69.3421C72.6947 69.3366 72.4947 69.4103 72.3413 69.5481C72.2607 69.6276 72.1983 69.7239 72.1586 69.8302C72.1188 69.9365 72.1026 70.0502 72.1111 70.1634C72.1017 70.3823 72.1749 70.5966 72.316 70.7636C72.3943 70.8444 72.4892 70.9071 72.594 70.9475C72.6988 70.9879 72.8111 71.0049 72.9231 70.9975C73.1734 71.0045 73.4165 70.9133 73.6011 70.7432V70.1126H72.9079V70.3821Z" fill="#AFB1B8"/>
<path d="M76.9226 69.3724H76.5988V70.9719H77.7195V70.6998H76.9226V69.3724Z" fill="#AFB1B8"/>
<path d="M80.3175 69.3724H79.9937V70.9719H80.3175V69.3724Z" fill="#AFB1B8"/>
<path d="M83.6365 70.4405L82.9813 69.3724H82.6676V70.9719H82.9686V69.9268L83.6112 70.9719H83.9325V69.3724H83.6365V70.4405Z" fill="#AFB1B8"/>
<path d="M86.6367 70.2675H87.4336V69.9954H86.6367V69.6445H87.4943V69.3724H86.3129V70.9719H87.5272V70.6998H86.6367V70.2675Z" fill="#AFB1B8"/>
<path d="M93.9122 70.0031H93.2823V69.3724H92.961V70.9719H93.2823V70.2726H93.9122V70.9719H94.2335V69.3724H93.9122V70.0031Z" fill="#AFB1B8"/>
<path d="M96.9302 70.2675H97.7296V69.9954H96.9302V69.6445H97.7903V69.3724H96.6089V70.9719H97.8207V70.6998H96.9302V70.2675Z" fill="#AFB1B8"/>
<path d="M101.023 70.2676C101.302 70.2244 101.443 70.0769 101.443 69.8226C101.451 69.7546 101.441 69.6856 101.413 69.623C101.386 69.5603 101.342 69.5063 101.286 69.4666C101.142 69.3938 100.98 69.3614 100.818 69.3725H100.14V70.972H100.462V70.3032H100.525C100.593 70.299 100.662 70.3112 100.725 70.3388C100.772 70.3678 100.811 70.4079 100.839 70.4558L101.188 70.9644H101.572L101.377 70.6516C101.291 70.4972 101.17 70.3656 101.023 70.2676ZM100.699 70.0464H100.462V69.6446H100.715C100.825 69.6357 100.936 69.6486 101.041 69.6827C101.064 69.7034 101.083 69.7291 101.095 69.7579C101.107 69.7867 101.113 69.8179 101.111 69.8492C101.11 69.8804 101.101 69.911 101.087 69.9385C101.072 69.966 101.051 69.9899 101.026 70.0082C100.92 70.0406 100.81 70.0535 100.699 70.0464Z" fill="#AFB1B8"/>
<path d="M104.11 70.2675H104.906V69.9954H104.11V69.6445H104.97V69.3724H103.786V70.9719H105V70.6998H104.11V70.2675Z" fill="#AFB1B8"/>
</svg>
