<svg width="170" height="90" viewBox="0 0 170 90" fill="none" xmlns="http://www.w3.org/2000/svg">
<rect x="0.5" y="0.5" width="169" height="89" rx="3.5" stroke="#AFB1B8"/>
<path d="M57.402 36.8306H57.3993C55.1369 36.8306 53.303 38.6177 53.303 40.8223V40.8249C53.303 43.0295 55.1369 44.8167 57.3993 44.8167H57.402C59.6643 44.8167 61.4982 43.0295 61.4982 40.8249V40.8223C61.4982 38.6177 59.6643 36.8306 57.402 36.8306Z" fill="#AFB1B8"/>
<path d="M87.6367 35.5545C87.6303 32.4924 86.3794 29.5575 84.1578 27.3921C81.9362 25.2266 78.9249 24.007 75.7827 24V24C72.6396 24.0056 69.6268 25.2246 67.404 27.3902C65.1813 29.5558 63.9297 32.4915 63.9232 35.5545V52.4402C63.9232 52.4402 87.634 49.8667 87.6367 35.5571V35.5545Z" fill="#AFB1B8"/>
<path d="M44.9999 57.9823C45.0056 60.1129 45.8765 62.1547 47.4222 63.6615C48.9679 65.1683 51.0628 66.0177 53.2491 66.0239C55.435 66.0177 57.5295 65.1687 59.0751 63.6625C60.6208 62.1562 61.492 60.1151 61.4984 57.9849V46.2356C61.4984 46.2356 44.9999 48.0276 44.9999 57.9823ZM53.2491 60.0874C52.8219 60.0874 52.4042 59.964 52.049 59.7326C51.6938 59.5013 51.4169 59.1726 51.2534 58.7879C51.0899 58.4032 51.0471 57.98 51.1305 57.5716C51.2138 57.1632 51.4196 56.7881 51.7217 56.4937C52.0238 56.1993 52.4087 55.9988 52.8277 55.9176C53.2467 55.8364 53.6811 55.8781 54.0758 56.0374C54.4705 56.1967 54.8079 56.4665 55.0453 56.8127C55.2826 57.1589 55.4093 57.5659 55.4093 57.9823C55.4104 58.2594 55.3553 58.534 55.2472 58.7903C55.1391 59.0466 54.9802 59.2796 54.7795 59.476C54.5788 59.6723 54.3403 59.828 54.0777 59.9343C53.8151 60.0406 53.5335 60.0953 53.2491 60.0953V60.0874Z" fill="#AFB1B8"/>
<path d="M70.0891 58.7812H68.4016V60.5244H67.5227V56.2588H70.3V56.9707H68.4016V58.0723H70.0891V58.7812ZM74.3137 58.4883C74.3137 58.9082 74.2395 59.2764 74.091 59.5928C73.9426 59.9092 73.7297 60.1533 73.4524 60.3252C73.177 60.4971 72.8606 60.583 72.5031 60.583C72.1496 60.583 71.8342 60.498 71.5569 60.3281C71.2795 60.1582 71.0647 59.916 70.9123 59.6016C70.76 59.2852 70.6828 58.9219 70.6809 58.5117V58.3008C70.6809 57.8809 70.7561 57.5117 70.9065 57.1934C71.0588 56.873 71.2727 56.6279 71.5481 56.458C71.8254 56.2861 72.1418 56.2002 72.4973 56.2002C72.8528 56.2002 73.1682 56.2861 73.4436 56.458C73.7209 56.6279 73.9348 56.873 74.0852 57.1934C74.2375 57.5117 74.3137 57.8799 74.3137 58.2979V58.4883ZM73.4231 58.2949C73.4231 57.8477 73.343 57.5078 73.1828 57.2754C73.0227 57.043 72.7942 56.9268 72.4973 56.9268C72.2024 56.9268 71.9748 57.042 71.8147 57.2725C71.6545 57.501 71.5735 57.8369 71.5715 58.2803V58.4883C71.5715 58.9238 71.6516 59.2617 71.8117 59.502C71.9719 59.7422 72.2024 59.8623 72.5031 59.8623C72.7981 59.8623 73.0246 59.7471 73.1828 59.5166C73.341 59.2842 73.4211 58.9463 73.4231 58.5029V58.2949ZM77.1643 59.4053C77.1643 59.2393 77.1057 59.1123 76.9885 59.0244C76.8713 58.9346 76.6604 58.8408 76.3557 58.7432C76.051 58.6436 75.8098 58.5459 75.632 58.4502C75.1477 58.1885 74.9055 57.8359 74.9055 57.3926C74.9055 57.1621 74.9699 56.957 75.0988 56.7773C75.2297 56.5957 75.4162 56.4541 75.6584 56.3525C75.9026 56.251 76.176 56.2002 76.4787 56.2002C76.7834 56.2002 77.0549 56.2559 77.2932 56.3672C77.5315 56.4766 77.716 56.6318 77.8469 56.833C77.9797 57.0342 78.0461 57.2627 78.0461 57.5186H77.1672C77.1672 57.3232 77.1057 57.1719 76.9826 57.0645C76.8596 56.9551 76.6867 56.9004 76.4641 56.9004C76.2492 56.9004 76.0822 56.9463 75.9631 57.0381C75.844 57.1279 75.7844 57.2471 75.7844 57.3955C75.7844 57.5342 75.8537 57.6504 75.9924 57.7441C76.133 57.8379 76.3391 57.9258 76.6106 58.0078C77.1106 58.1582 77.4748 58.3447 77.7033 58.5674C77.9319 58.79 78.0461 59.0674 78.0461 59.3994C78.0461 59.7686 77.9065 60.0586 77.6272 60.2695C77.3479 60.4785 76.9719 60.583 76.4992 60.583C76.1711 60.583 75.8723 60.5234 75.6028 60.4043C75.3332 60.2832 75.1272 60.1182 74.9846 59.9092C74.844 59.7002 74.7737 59.458 74.7737 59.1826H75.6555C75.6555 59.6533 75.9367 59.8887 76.4992 59.8887C76.7082 59.8887 76.8713 59.8467 76.9885 59.7627C77.1057 59.6768 77.1643 59.5576 77.1643 59.4053ZM81.8547 56.9707H80.5481V60.5244H79.6692V56.9707H78.3801V56.2588H81.8547V56.9707ZM84.925 58.6758H83.2375V59.8184H85.218V60.5244H82.3586V56.2588H85.2121V56.9707H83.2375V57.9873H84.925V58.6758ZM87.3127 58.9629H86.6125V60.5244H85.7336V56.2588H87.3186C87.8225 56.2588 88.2112 56.3711 88.4846 56.5957C88.758 56.8203 88.8947 57.1377 88.8947 57.5479C88.8947 57.8389 88.8313 58.082 88.7043 58.2773C88.5793 58.4707 88.3889 58.625 88.133 58.7402L89.0559 60.4834V60.5244H88.1125L87.3127 58.9629ZM86.6125 58.251H87.3215C87.5422 58.251 87.7131 58.1953 87.8342 58.084C87.9553 57.9707 88.0158 57.8154 88.0158 57.6182C88.0158 57.417 87.9582 57.2588 87.843 57.1436C87.7297 57.0283 87.5549 56.9707 87.3186 56.9707H86.6125V58.251ZM91.9387 59.0215V60.5244H91.0598V56.2588H92.7238C93.0442 56.2588 93.3254 56.3174 93.5676 56.4346C93.8117 56.5518 93.9992 56.7188 94.1301 56.9355C94.261 57.1504 94.3264 57.3955 94.3264 57.6709C94.3264 58.0889 94.1828 58.4189 93.8957 58.6611C93.6106 58.9014 93.2151 59.0215 92.7092 59.0215H91.9387ZM91.9387 58.3096H92.7238C92.9563 58.3096 93.133 58.2549 93.2541 58.1455C93.3772 58.0361 93.4387 57.8799 93.4387 57.6768C93.4387 57.4678 93.3772 57.2988 93.2541 57.1699C93.1311 57.041 92.9612 56.9746 92.7444 56.9707H91.9387V58.3096ZM97.4992 58.6758H95.8117V59.8184H97.7922V60.5244H94.9328V56.2588H97.7863V56.9707H95.8117V57.9873H97.4992V58.6758ZM101.577 56.9707H100.271V60.5244H99.3918V56.9707H98.1028V56.2588H101.577V56.9707ZM104.648 58.6758H102.96V59.8184H104.941V60.5244H102.081V56.2588H104.935V56.9707H102.96V57.9873H104.648V58.6758ZM107.035 58.9629H106.335V60.5244H105.456V56.2588H107.041C107.545 56.2588 107.934 56.3711 108.207 56.5957C108.481 56.8203 108.617 57.1377 108.617 57.5479C108.617 57.8389 108.554 58.082 108.427 58.2773C108.302 58.4707 108.112 58.625 107.856 58.7402L108.779 60.4834V60.5244H107.835L107.035 58.9629ZM106.335 58.251H107.044C107.265 58.251 107.436 58.1953 107.557 58.084C107.678 57.9707 107.738 57.8154 107.738 57.6182C107.738 57.417 107.681 57.2588 107.566 57.1436C107.452 57.0283 107.278 56.9707 107.041 56.9707H106.335V58.251ZM111.5 59.4053C111.5 59.2393 111.442 59.1123 111.324 59.0244C111.207 58.9346 110.996 58.8408 110.692 58.7432C110.387 58.6436 110.146 58.5459 109.968 58.4502C109.484 58.1885 109.241 57.8359 109.241 57.3926C109.241 57.1621 109.306 56.957 109.435 56.7773C109.566 56.5957 109.752 56.4541 109.994 56.3525C110.238 56.251 110.512 56.2002 110.815 56.2002C111.119 56.2002 111.391 56.2559 111.629 56.3672C111.867 56.4766 112.052 56.6318 112.183 56.833C112.316 57.0342 112.382 57.2627 112.382 57.5186H111.503C111.503 57.3232 111.442 57.1719 111.319 57.0645C111.196 56.9551 111.023 56.9004 110.8 56.9004C110.585 56.9004 110.418 56.9463 110.299 57.0381C110.18 57.1279 110.12 57.2471 110.12 57.3955C110.12 57.5342 110.19 57.6504 110.328 57.7441C110.469 57.8379 110.675 57.9258 110.947 58.0078C111.447 58.1582 111.811 58.3447 112.039 58.5674C112.268 58.79 112.382 59.0674 112.382 59.3994C112.382 59.7686 112.242 60.0586 111.963 60.2695C111.684 60.4785 111.308 60.583 110.835 60.583C110.507 60.583 110.208 60.5234 109.939 60.4043C109.669 60.2832 109.463 60.1182 109.321 59.9092C109.18 59.7002 109.11 59.458 109.11 59.1826H109.991C109.991 59.6533 110.273 59.8887 110.835 59.8887C111.044 59.8887 111.207 59.8467 111.324 59.7627C111.442 59.6768 111.5 59.5576 111.5 59.4053Z" fill="#AFB1B8"/>
</svg>
