<svg width="170" height="90" viewBox="0 0 170 90" fill="none" xmlns="http://www.w3.org/2000/svg">
<rect x="0.5" y="0.5" width="169" height="89" rx="3.5" stroke="#AFB1B8"/>
<path d="M71.3455 65.7946C71.3605 65.795 71.3753 65.7982 71.389 65.8041C71.4027 65.81 71.415 65.8184 71.4252 65.8289L71.631 66.0446C71.4713 66.2191 71.2738 66.3588 71.0523 66.4539C70.7928 66.5577 70.5131 66.6078 70.2317 66.6009C69.9674 66.6061 69.7047 66.5594 69.4601 66.4637C69.2395 66.3758 69.0412 66.2437 68.8788 66.0764C68.713 65.9029 68.5853 65.6996 68.5033 65.4784C68.4134 65.2318 68.369 64.9723 68.3721 64.7113C68.3684 64.4486 68.4164 64.1875 68.5135 63.9417C68.6034 63.7191 68.7389 63.5158 68.9122 63.3436C69.0879 63.1749 69.298 63.0423 69.5295 62.9539C69.7829 62.8604 70.0526 62.8138 70.3243 62.8167C70.5767 62.8108 70.8277 62.8534 71.0625 62.9417C71.2663 63.0259 71.4533 63.1428 71.6155 63.2873L71.4432 63.5177C71.4313 63.5339 71.4165 63.548 71.3995 63.5593C71.3792 63.5726 71.3546 63.5787 71.33 63.5765C71.3033 63.5747 71.2776 63.5663 71.2554 63.552L71.1629 63.4907L71.0342 63.4123C70.9787 63.3832 70.9211 63.3578 70.8619 63.3363C70.7856 63.3103 70.7074 63.2898 70.6278 63.275C70.5269 63.2573 70.4244 63.2491 70.3218 63.2505C70.1261 63.2482 69.932 63.2832 69.7507 63.3534C69.5817 63.4185 69.4292 63.5171 69.3032 63.6427C69.1749 63.7762 69.0761 63.9329 69.0125 64.1034C68.9401 64.2985 68.9044 64.5043 68.9071 64.7113C68.904 64.9214 68.9397 65.1305 69.0125 65.3289C69.0753 65.498 69.1723 65.6537 69.2981 65.7872C69.4159 65.9117 69.5619 66.0089 69.725 66.0715C69.8929 66.1379 70.0731 66.1712 70.2549 66.1696C70.3599 66.1711 70.4648 66.1646 70.5687 66.15C70.7383 66.1302 70.901 66.0741 71.0445 65.9858C71.1165 65.9405 71.1845 65.8897 71.2477 65.8338C71.2742 65.8098 71.309 65.7958 71.3455 65.7946Z" fill="#AFB1B8"/>
<path d="M77.2871 64.7108C77.2903 64.9709 77.2432 65.2292 77.1482 65.473C77.0644 65.6941 76.9323 65.8958 76.7608 66.0648C76.5892 66.2338 76.382 66.3662 76.1528 66.4533C75.6492 66.6363 75.0925 66.6363 74.589 66.4533C74.3613 66.3648 74.1554 66.2321 73.9845 66.0636C73.8131 65.8916 73.68 65.6882 73.5936 65.4657C73.4083 64.972 73.4083 64.4325 73.5936 63.9388C73.6813 63.7162 73.8141 63.5122 73.9845 63.3384C74.1568 63.1752 74.3626 63.0476 74.589 62.9635C75.0919 62.7772 75.6499 62.7772 76.1528 62.9635C76.3813 63.0519 76.588 63.1846 76.7598 63.3531C76.9292 63.5235 77.0612 63.7243 77.1482 63.9437C77.2435 64.1892 77.2906 64.4492 77.2871 64.7108ZM76.747 64.7108C76.751 64.5028 76.718 64.2956 76.6492 64.0981C76.5916 63.929 76.4979 63.7729 76.374 63.6399C76.2534 63.5139 76.1049 63.4152 75.9393 63.3507C75.5734 63.2167 75.1684 63.2167 74.8024 63.3507C74.6368 63.4152 74.4884 63.5139 74.3678 63.6399C74.2422 63.7722 74.1475 63.9284 74.09 64.0981C73.9591 64.4971 73.9591 64.9246 74.09 65.3235C74.148 65.4931 74.2427 65.6492 74.3678 65.7818C74.4885 65.907 74.637 66.0049 74.8024 66.0685C75.169 66.1991 75.5728 66.1991 75.9393 66.0685C76.1048 66.0049 76.2533 65.907 76.374 65.7818C76.4974 65.6484 76.591 65.4925 76.6492 65.3235C76.7183 65.1261 76.7513 64.9189 76.747 64.7108Z" fill="#AFB1B8"/>
<path d="M81.3408 65.3532L81.3948 65.4904C81.4154 65.4414 81.4334 65.3973 81.454 65.3532C81.4736 65.3071 81.4959 65.2621 81.5209 65.2184L82.8352 62.942C82.861 62.9028 82.8841 62.8783 82.9098 62.8709C82.9448 62.8608 82.9814 62.8566 83.0179 62.8587H83.4062V66.5613H82.9458V63.8388C82.9458 63.8045 82.9458 63.7653 82.9458 63.7237C82.9434 63.6812 82.9434 63.6387 82.9458 63.5962L81.6238 65.9046C81.607 65.9391 81.5801 65.9684 81.5464 65.9888C81.5126 66.0092 81.4734 66.02 81.4334 66.0197H81.3588C81.3188 66.0203 81.2794 66.0097 81.2456 65.9892C81.2118 65.9687 81.185 65.9393 81.1685 65.9046L79.8078 63.5815C79.8078 63.6256 79.8078 63.6698 79.8078 63.7139C79.8078 63.758 79.8078 63.7972 79.8078 63.8315V66.5539H79.3629V62.8587H79.7512C79.7877 62.8566 79.8243 62.8608 79.8593 62.8709C79.8912 62.886 79.9166 62.9111 79.9313 62.942L81.274 65.2209C81.3003 65.263 81.3227 65.3073 81.3408 65.3532Z" fill="#AFB1B8"/>
<path d="M86.2871 65.1692V66.5562H85.7726V62.8585H86.9198C87.1364 62.8546 87.3523 62.8818 87.5603 62.9394C87.7268 62.9843 87.8812 63.0629 88.013 63.1697C88.1272 63.2699 88.2153 63.394 88.2702 63.5324C88.3309 63.6832 88.3606 63.8438 88.3576 64.0053C88.3599 64.1675 88.3275 64.3284 88.2625 64.4782C88.2006 64.6201 88.1056 64.7466 87.9847 64.8482C87.8527 64.9595 87.6976 65.043 87.5294 65.0933C87.3292 65.1542 87.1197 65.1832 86.9095 65.179L86.2871 65.1692ZM86.2871 64.7723H86.9095C87.0447 64.7739 87.1793 64.7549 87.3082 64.7159C87.4145 64.6818 87.5125 64.6277 87.5963 64.5566C87.6736 64.4888 87.7334 64.405 87.7712 64.3116C87.8133 64.2128 87.8343 64.107 87.8329 64.0004C87.8389 63.8976 87.8213 63.7948 87.7813 63.6992C87.7413 63.6035 87.68 63.5174 87.6014 63.4466C87.4049 63.3004 87.1581 63.2296 86.9095 63.2481H86.2871V64.7723Z" fill="#AFB1B8"/>
<path d="M93.201 66.5612H92.7946C92.7538 66.5626 92.7138 66.5505 92.6814 66.5268C92.6522 66.5038 92.6293 66.4744 92.6145 66.4411L92.2647 65.5466H90.508L90.1453 66.4411C90.132 66.4738 90.1098 66.5025 90.081 66.5244C90.0483 66.5495 90.0072 66.5625 89.9652 66.5612H89.5588L91.1021 62.8582H91.6371L93.201 66.5612ZM90.6546 65.1863H92.1053L91.4931 63.6791C91.4463 63.5658 91.4076 63.4495 91.3773 63.3311L91.3182 63.5247C91.3002 63.5836 91.2796 63.6375 91.2616 63.6816L90.6546 65.1863Z" fill="#AFB1B8"/>
<path d="M95.4233 62.8754C95.4541 62.8915 95.4805 62.9141 95.5005 62.9416L97.7511 65.7329C97.7511 65.6887 97.7511 65.6446 97.7511 65.603C97.7511 65.5613 97.7511 65.5197 97.7511 65.4804V62.8582H98.2115V66.5612H97.9543C97.9178 66.5622 97.8816 66.5547 97.8489 66.5391C97.8171 66.5215 97.7892 66.4982 97.7666 66.4705L95.5185 63.6817C95.521 63.7241 95.521 63.7666 95.5185 63.8091C95.5185 63.8508 95.5185 63.8875 95.5185 63.9218V66.5612H95.0581V62.8582H95.3308C95.3626 62.8574 95.3942 62.8632 95.4233 62.8754Z" fill="#AFB1B8"/>
<path d="M102.003 65.0884V66.5588H101.488V65.0884L100.066 62.8584H100.526C100.566 62.8561 100.605 62.8674 100.637 62.8902C100.665 62.914 100.689 62.9422 100.707 62.9735L101.596 64.4121C101.632 64.4733 101.663 64.5297 101.689 64.5836C101.715 64.6375 101.735 64.689 101.753 64.7405L101.82 64.5812C101.845 64.5229 101.874 64.4664 101.908 64.4121L102.785 62.9637C102.803 62.9348 102.826 62.9084 102.852 62.8853C102.882 62.8599 102.922 62.8467 102.962 62.8486H103.428L102.003 65.0884Z" fill="#AFB1B8"/>
<path d="M81.0862 56.6443C81.31 56.6712 81.5363 56.6933 81.7652 56.7129C85.2358 55.2337 88.1718 52.8127 90.2062 49.7526C92.2406 46.6924 93.2832 43.1289 93.2036 39.5073L89.3788 35.8633C90.1565 39.7191 89.7927 43.705 88.3282 47.3751C86.8636 51.0452 84.3561 54.2546 81.0862 56.6443Z" fill="#AFB1B8"/>
<path d="M79.7204 56.4748L79.8233 56.4944C83.3175 54.1132 85.9816 50.788 87.4709 46.9488C88.9603 43.1097 89.2065 38.9331 88.1776 34.9592L82.7298 29.769C84.9333 34.0353 85.8202 38.8098 85.2875 43.5374C84.7547 48.265 82.8242 52.7514 79.7204 56.4748Z" fill="#AFB1B8"/>
<path d="M98.1961 43.7861C97.2706 47.7654 95.0227 51.3541 91.7863 54.0196C90.8411 54.8023 89.8216 55.4996 88.7409 56.1025C91.3763 55.3646 93.7985 54.0598 95.8209 52.289C97.8433 50.5181 99.4119 48.3284 100.406 45.8887L98.1961 43.7861Z" fill="#AFB1B8"/>
<path d="M97.3293 43.2002L94.1835 40.2031C94.1234 43.6201 93.1038 46.9594 91.2307 49.8739C89.3576 52.7885 86.6994 55.1718 83.5323 56.7764H83.5477C84.2535 56.7761 84.9586 56.736 85.6595 56.6563C88.6193 55.5053 91.2339 53.6742 93.2702 51.3262C95.3065 48.9782 96.701 46.1865 97.3293 43.2002Z" fill="#AFB1B8"/>
<path d="M80.1757 27.5803L76.4229 24C73.0681 25.2351 70.1828 27.4064 68.1446 30.2297C66.1065 33.053 65.0105 36.3968 65 39.8234V39.8234C65.0126 43.6097 66.3502 47.2838 68.8012 50.2643C71.2521 53.2448 74.6764 55.3614 78.5321 56.2791C81.974 52.2838 83.9892 47.347 84.2847 42.186C84.5803 37.025 83.1409 31.9086 80.1757 27.5803Z" fill="#AFB1B8"/>
<path d="M106 42.649C105.986 38.1568 104.107 33.8522 100.773 30.6757C97.4391 27.4992 92.921 25.709 88.2059 25.6961C86.0271 25.6939 83.8668 26.077 81.8347 26.8258L104.812 48.7166C105.598 46.7815 106.001 44.7241 106 42.649Z" fill="#AFB1B8"/>
</svg>
