<svg width="170" height="90" viewBox="0 0 170 90" fill="none" xmlns="http://www.w3.org/2000/svg">
<rect x="0.5" y="0.5" width="169" height="89" rx="3.5" stroke="#AFB1B8"/>
<path d="M60.4876 61.2778C60.7175 61.5634 60.84 61.9212 60.8336 62.2884C60.8453 62.528 60.8032 62.7671 60.7104 62.988C60.6176 63.209 60.4765 63.4062 60.2975 63.565C59.851 63.9037 59.2977 64.0692 58.7393 64.0313H56V57.6263H58.6832C59.2129 57.5909 59.7383 57.7413 60.1698 58.0518C60.3431 58.1974 60.4803 58.3815 60.5706 58.5895C60.6609 58.7974 60.7019 59.0236 60.6902 59.2502C60.706 59.6035 60.5954 59.9509 60.3786 60.2296C60.1704 60.4841 59.8826 60.6605 59.5621 60.7302C59.9255 60.7968 60.2535 60.9909 60.4876 61.2778ZM57.2746 60.3109H58.4215C58.6821 60.3303 58.941 60.2548 59.1507 60.0982C59.2368 60.0198 59.3038 59.9226 59.3465 59.8141C59.3892 59.7056 59.4064 59.5887 59.3969 59.4724C59.405 59.3565 59.3874 59.2403 59.3453 59.1321C59.3033 59.0239 59.2379 58.9264 59.1538 58.8466C58.9378 58.6856 58.6709 58.6088 58.4028 58.6307H57.2746V60.3109ZM59.2629 62.7672C59.3549 62.6869 59.4273 62.5865 59.4743 62.4736C59.5213 62.3607 59.5418 62.2385 59.534 62.1163C59.541 61.9928 59.5197 61.8693 59.4716 61.7554C59.4235 61.6414 59.35 61.5401 59.2567 61.4593C59.0323 61.2922 58.7563 61.2102 58.4776 61.2277H57.2746V62.9893H58.4931C58.7674 63.0052 59.0389 62.9269 59.2629 62.7672Z" fill="#AFB1B8"/>
<path d="M65.9725 64.0313L64.4798 61.5281H63.9188V64.0313H62.6349V57.6263H65.0657C65.6784 57.5834 66.2841 57.7783 66.7579 58.1708C67.0977 58.5184 67.3026 58.9764 67.3358 59.4624C67.3689 59.9483 67.2281 60.4301 66.9386 60.821C66.6387 61.1659 66.2291 61.3959 65.7793 61.4718L67.3687 64.0313H65.9725ZM63.9188 60.6552H64.9691C65.6983 60.6552 66.0629 60.3318 66.0629 59.6852C66.0704 59.5531 66.0504 59.421 66.0042 59.2971C65.9581 59.1732 65.8868 59.0603 65.7949 58.9655C65.5645 58.7731 65.2677 58.6798 64.9691 58.7058H63.9064L63.9188 60.6552Z" fill="#AFB1B8"/>
<path d="M72.9907 62.742H70.4321L69.9803 64.0311H68.634L70.9838 57.6981H72.4391L74.7795 64.0311H73.4333L72.9907 62.742ZM72.6479 61.772L71.713 59.0686L70.7781 61.772H72.6479Z" fill="#AFB1B8"/>
<path d="M81.7759 64.0312H80.5013L77.6435 59.6757V64.0312H76.372V57.6262H77.6435L80.5013 62.0068V57.6262H81.7759V64.0312Z" fill="#AFB1B8"/>
<path d="M89.0496 62.4981C88.7861 62.9817 88.3845 63.375 87.8965 63.6276C87.3417 63.909 86.7259 64.0477 86.1046 64.0313H83.8358V57.6263H86.1046C86.7249 57.61 87.3398 57.7453 87.8965 58.0206C88.3844 58.2674 88.7864 58.6569 89.0496 59.1376C89.3119 59.6585 89.4486 60.2341 89.4486 60.8178C89.4486 61.4016 89.3119 61.9772 89.0496 62.4981ZM87.5911 62.3448C87.9549 61.9193 88.1549 61.377 88.1549 60.8163C88.1549 60.2555 87.9549 59.7133 87.5911 59.2878C87.1514 58.9024 86.578 58.7067 85.9955 58.7433H85.1104V62.8892H85.9955C86.578 62.9258 87.1514 62.7302 87.5911 62.3448Z" fill="#AFB1B8"/>
<path d="M73.7885 22C73.7885 22 90.24 28.236 89.891 37.2599V52.5229C89.891 52.5229 73.4519 46.2838 73.7947 37.2599L73.7885 22Z" fill="#AFB1B8"/>
<path d="M104.548 48.9496C107.655 46.8028 111.248 45.4731 115 45.0822V40.3043C110.677 41.977 107.01 45.0101 104.548 48.9496Z" fill="#AFB1B8"/>
<path d="M102.681 50.389C105.224 45.2478 109.633 41.2805 115 39.3032V25.5358C115 25.5358 91.5708 34.4189 92.0663 47.2695V69C92.0663 69 93.1103 68.6027 94.7526 67.858C94.7526 67.1633 94.7526 66.4625 94.8274 65.7584C95.3123 59.7926 98.1371 54.2643 102.681 50.389Z" fill="#AFB1B8"/>
<path d="M100.453 58.4617C100.576 56.9546 100.85 55.4639 101.272 54.0123C98.443 57.3589 96.7297 61.5117 96.3732 65.8867C96.3389 66.2997 96.3202 66.7127 96.3109 67.1383C97.6416 66.4968 99.1904 65.6958 100.817 64.754C100.402 62.6842 100.279 60.5659 100.453 58.4617Z" fill="#AFB1B8"/>
<path d="M101.384 58.54C101.228 60.4437 101.326 62.3599 101.674 64.2378C108.075 60.3923 115.268 54.4504 114.991 47.2695V46.6437C110.417 47.1575 106.139 49.1648 102.812 52.3571C102.033 54.3355 101.552 56.4193 101.384 58.54Z" fill="#AFB1B8"/>
</svg>
